<?xml version="1.0" encoding="UTF-8"?> <svg xmlns="http://www.w3.org/2000/svg" width="74" height="74" viewBox="0 0 74 74"> <title>ic_how_we_work_imagine</title> <g fill="none" fill-rule="evenodd"> <path d="M37 37.699c9.389 0 15.963-3.136 15.963-12.525S46.389 9 37 9s-15.995 4.96-15.995 14.35c0 9.388 6.606 14.349 15.995 14.349z" fill="#E3EA99"></path> <path d="M54 24c0-9.374-7.626-17-17-17-9.374 0-17 7.626-17 17 0 4.945 2.187 9.64 5.909 12.855A2.99 2.99 0 0 0 25 39c0 .771.301 1.468.78 2a2.976 2.976 0 0 0-.78 2c0 .771.301 1.468.78 2a2.976 2.976 0 0 0-.78 2c0 1.302.839 2.402 2 2.816V57c0 .269.11.52.295.705l8.998 9.002a.997.997 0 0 0 1.414 0l9-9c.183-.187.293-.438.293-.707v-7.184A2.996 2.996 0 0 0 49 47a2.98 2.98 0 0 0-.78-2c.48-.532.78-1.229.78-2a2.98 2.98 0 0 0-.78-2c.48-.532.78-1.229.78-2a2.99 2.99 0 0 0-.909-2.145C51.813 33.64 54 28.945 54 24zM37 64.586L35.414 63h3.172L37 64.586zm-3.128-39.709a.998.998 0 0 0 1.256 0A4.97 4.97 0 0 0 37 21c0-.231-.022-.459-.053-.685-.009-.065-.021-.128-.033-.193a4.649 4.649 0 0 0-.121-.509c-.016-.056-.03-.112-.048-.167a4.94 4.94 0 0 0-.253-.622c-.018-.036-.04-.07-.059-.107a4.862 4.862 0 0 0-.291-.485c-.018-.027-.031-.057-.05-.084a2.912 2.912 0 0 1 1.818 0c-.019.027-.032.057-.05.084a5.185 5.185 0 0 0-.291.485c-.019.036-.041.07-.059.107-.099.201-.183.41-.253.622-.018.055-.032.111-.048.167a5.16 5.16 0 0 0-.121.509c-.012.064-.024.128-.033.193A4.734 4.734 0 0 0 37 21a4.97 4.97 0 0 0 1.872 3.877.998.998 0 0 0 1.256 0A4.97 4.97 0 0 0 42 21c0-.231-.022-.459-.053-.685-.009-.065-.021-.128-.033-.193a4.649 4.649 0 0 0-.121-.509c-.016-.056-.03-.112-.049-.167a4.94 4.94 0 0 0-.253-.622c-.018-.038-.041-.073-.061-.11a5.045 5.045 0 0 0-.286-.479c-.019-.029-.033-.06-.053-.088A2.88 2.88 0 0 1 42 18c1.598 0 3 1.503 3 3.218 0 1.47-.648 2.854-1.778 3.795l-3.862 3.219A1 1 0 0 0 39 29v7h-4v-7a1 1 0 0 0-.36-.768l-3.862-3.219A4.928 4.928 0 0 1 29 21.218C29 19.503 30.402 18 32 18c.311 0 .616.05.908.147-.02.028-.034.06-.053.088-.105.155-.2.314-.286.479-.019.037-.042.072-.061.11a4.94 4.94 0 0 0-.253.622c-.018.055-.032.112-.049.167a5.16 5.16 0 0 0-.121.509c-.012.064-.024.128-.033.193-.03.226-.052.454-.052.685a4.97 4.97 0 0 0 1.872 3.877zM34 21c0-.199.028-.394.067-.586.01-.046.02-.093.032-.138.048-.187.109-.371.193-.546l.022-.039c.052-.103.122-.197.186-.294.064.097.134.191.186.294.006.013.015.025.022.038.084.174.145.358.193.546A2.958 2.958 0 0 1 35 21c0 .199-.028.394-.067.586-.01.046-.02.093-.032.138a2.953 2.953 0 0 1-.193.546c-.006.013-.015.026-.022.039-.052.103-.122.197-.186.294-.064-.097-.134-.191-.186-.294-.007-.013-.016-.026-.022-.039a2.953 2.953 0 0 1-.193-.546c-.012-.046-.022-.092-.032-.138A2.94 2.94 0 0 1 34 21zm5 0c0-.199.028-.394.067-.586.01-.046.02-.093.032-.138.048-.187.109-.371.193-.546l.022-.039c.052-.103.122-.197.186-.294.064.097.134.191.186.294.006.013.015.025.022.038.084.174.145.358.193.546A2.958 2.958 0 0 1 40 21c0 .199-.028.394-.067.586-.01.046-.02.093-.032.138a2.953 2.953 0 0 1-.193.546c-.006.013-.015.026-.022.039-.052.103-.122.197-.186.294-.064-.097-.134-.191-.186-.294-.007-.013-.016-.026-.022-.039a2.953 2.953 0 0 1-.193-.546c-.012-.046-.022-.092-.032-.138A2.94 2.94 0 0 1 39 21zm6.978 15H41v-6.532l3.502-2.919A6.918 6.918 0 0 0 47 21.218C47 18.39 44.71 16 42 16a4.88 4.88 0 0 0-2.503.697 4.993 4.993 0 0 0-4.993 0A4.886 4.886 0 0 0 32 16c-2.71 0-5 2.39-5 5.218 0 2.065.91 4.009 2.498 5.332L33 29.468V36h-4.978C24.245 33.168 22 28.71 22 24c0-8.271 6.729-15 15-15s15 6.729 15 15c0 4.71-2.245 9.168-6.022 12zm6.314-24.705l4-4 1.415 1.414-4 4zm-.002 25.41l1.415-1.414 4 4-1.414 1.414zM57 23h6v2h-6zM16.293 8.708l1.414-1.415 4 4-1.414 1.415zm-.001 30.584l4-4 1.414 1.414-4 4zM11 23h6v2h-6z" fill="#1E263A"></path> <path fill="#00ADEE" d="M49 55h2v2h-2zm4 0h2v2h-2zm4 0h2v2h-2zm-42 0h2v2h-2zm4 0h2v2h-2zm4 0h2v2h-2z"></path> <path d="M46 48H28c-.551 0-1-.449-1-1 0-.551.449-1 1-1h18c.551 0 1 .449 1 1 0 .551-.449 1-1 1zm0-4H28c-.551 0-1-.449-1-1 0-.551.449-1 1-1h18c.551 0 1 .449 1 1 0 .551-.449 1-1 1zm0-4H28c-.551 0-1-.449-1-1 0-.551.449-1 1-1h17.996l.012.002A1 1 0 0 1 46 40z" fill="#A5CD39"></path> <path d="M45 55.131l-1.445-.963a1 1 0 0 0-1.109 0L40 55.798l-2.445-1.63a1 1 0 0 0-1.109 0L34 55.798l-2.445-1.63a1 1 0 0 0-1.109 0L29 55.131V50h16v5.131z" fill="#F55E64"></path> <path d="M40.586 61h-7.172l-3.844-3.845 1.43-.953 2.445 1.63a1 1 0 0 0 1.109 0L37 56.202l2.445 1.63a1 1 0 0 0 1.109 0L43 56.202l1.43.954L40.586 61z" fill="#FFF"></path> <path d="M0 0h74v74H0z"></path> </g> </svg> 