<?xml version="1.0" encoding="UTF-8"?> <svg xmlns="http://www.w3.org/2000/svg" width="74" height="74" viewBox="0 0 74 74"> <title>ic_how_we_work_create</title> <g fill="none" fill-rule="evenodd"> <path fill="#F65E64" d="M21 61h6v6h-6z"></path> <path fill="#86D2E9" d="M7 6h60v37.098L54.923 55H7z"></path> <path fill="#E3EA99" d="M21 26.109l3-5.09 3 5.09V61h-6z"></path> <path d="M24.9 18.7c-.1-.4-.5-.7-.9-.7s-.8.3-.9.7l-2.9 8.7c-.1.2-.2.4-.2.6v40c0 .6.4 1 1 1h6c.6 0 1-.4 1-1V28c0-.2-.1-.5-.2-.6l-2.9-8.7zM22 29h1v31h-1V29zm3 0h1v31h-1V29zm-1-6.8l1.6 4.8h-3.2l1.6-4.8zM26 67h-4v-5h4v5zm18-54c-5 0-9 4-9 9v2h2v-2c0-3.9 3.1-7 7-7s7 3.1 7 7v2h2v-2c0-5-4-9-9-9z" fill="#1E263A"></path> <path d="M63 23v-2h-2v2c0 3.9-3.1 7-7 7s-7-3.1-7-7v-2h-2v2c0 5 4 9 9 9s9-4 9-9zM34 40v10c0 .6.4 1 1 1h10c.6 0 1-.4 1-1V40c0-.6-.4-1-1-1H35c-.6 0-1 .4-1 1zm2 1h8v8h-8v-8z" fill="#1E263A"></path> <path d="M48 42v2h2c.6 0 1-.4 1-1v-8c0-.6-.4-1-1-1h-8c-.6 0-1 .4-1 1v2h2v-1h6v6h-1zM11 11h2v2h-2zm4 0h2v2h-2zm4 0h2v2h-2zm-4 4h2v2h-2zm-4 0h2v2h-2zm0 4h2v2h-2zm0 4h2v2h-2zm0 4h2v2h-2zm0 4h2v2h-2zm0 4h2v2h-2zm0 4h2v2h-2zm0 4h2v2h-2zm0 4h2v2h-2z" fill="#1E263A"></path> <path fill="#00ADEE" d="M55 54.894V43h12.14z"></path> <path d="M0 0h74v74H0z"></path> </g> </svg> 