<?xml version="1.0" encoding="UTF-8"?> <svg xmlns="http://www.w3.org/2000/svg" xmlns:xlink="http://www.w3.org/1999/xlink" width="74" height="74" viewBox="0 0 74 74"> <title>ic_how_we_work_build</title> <defs> <rect id="a" x="10.357" y="43.5" width="38.321" height="6.214" rx="3.107"></rect> <mask id="b" x="0" y="0" width="38.321" height="6.214" fill="#fff"> <use xlink:href="#a"></use> </mask> </defs> <g fill="none" fill-rule="evenodd"> <g transform="translate(8 6)"> <path stroke="#1E263A" stroke-width="2" stroke-linecap="round" stroke-linejoin="round" fill="#BED13C" d="M20.446 36.25l-4.91 8.664h28.083l-5.454-8.502"></path> <rect fill="#86D2E9" x="1.036" y="1.036" width="56.964" height="27.964" rx="5"></rect> <path d="M7.25 53.857c-3.997 0-7.25 3.253-7.25 7.25 0 .573.463 1.036 1.036 1.036h12.428c.573 0 1.036-.463 1.036-1.036 0-3.997-3.253-7.25-7.25-7.25zM52.39 37.01c1.22-.011 3.115-.356 2.834-.343 1.642-.87 2.776-2.576 2.776-4.56V5.18A5.184 5.184 0 0 0 52.821 0H5.18A5.184 5.184 0 0 0 0 5.179v26.928a5.184 5.184 0 0 0 5.179 5.179h13.516l33.695-.276zM2.071 5.18A3.11 3.11 0 0 1 5.18 2.07h47.64a3.11 3.11 0 0 1 3.11 3.11v21.75H2.07V5.179z" fill="#1E263A"></path> <path d="M22.482 9.018l-1.464-1.465-7.25 7.25a1.035 1.035 0 0 0 0 1.465l7.25 7.25 1.464-1.465-6.517-6.517 6.517-6.518zm22.786 5.785l-7.25-7.25-1.465 1.465 6.518 6.518-6.518 6.517 1.465 1.465 7.25-7.25a1.035 1.035 0 0 0 0-1.465zm-21.339 8.556l9.319-18.637 1.852.926-9.319 18.637z" fill="#1E263A"></path> <use stroke="#1D2538" mask="url(#b)" stroke-width="4" stroke-linecap="round" stroke-linejoin="round" fill="#E3EA99" xlink:href="#a"></use> <path d="M5.179 35.214a3.11 3.11 0 0 1-3.108-3.107V29H55.93v3.107a3.11 3.11 0 0 1-3.108 3.107H5.18z" fill="#E3EA99"></path> <path d="M2.176 60.071a5.185 5.185 0 0 1 4.038-4.029V58h2.072v-1.958a5.186 5.186 0 0 1 4.038 4.03H2.176z" fill="#F65E64"></path> </g> <path d="M0 0h74v74H0z"></path> </g> </svg> 