<?xml version="1.0" encoding="UTF-8" standalone="no"?> <svg xmlns="http://www.w3.org/2000/svg" xmlns:xlink="http://www.w3.org/1999/xlink" width="128px" height="128px" viewBox="0 0 128 128"> <!-- Generator: Sketch 49.1 (51147) - http://www.bohemiancoding.com/sketch --> <title>noun_29780_cc</title> <desc>Created with Sketch.</desc> <defs></defs> <g id="Page-1" stroke="none" stroke-width="1" fill="none" fill-rule="evenodd"> <g id="noun_29780_cc" fill="#000000" fill-rule="nonzero"> <path d="M119.997186,39.9985478 L119.997186,31.9985478 L111.997277,31.9985478 L111.997277,23.9985478 L111.997277,15.9985478 L103.997368,15.9985478 L103.997368,7.99854783 L95.9974587,7.99854783 L87.9960973,7.99854783 L87.9960973,0 L79.9961881,0 L71.997731,0 L63.9978218,0 L55.9979125,0 L47.9980033,0 L39.998094,0 L39.998094,8 L31.9981848,8 L23.9982756,8 L23.9982756,16 L15.9983663,16 L15.9983663,24 L15.9983663,32 L7.99845709,32 L7.99845709,40 L0,40 L0,48 L0,56 L0,63.9985478 L0,71.9985478 L0,79.9985478 L0,87.9985478 L0,95.9985478 L7.99990924,95.9985478 L15.9998185,95.9985478 L15.9998185,104 L15.9998185,112 L15.9998185,120 L23.9997277,120 L23.9997277,128 L31.999637,128 L39.9995462,128 L47.9994554,128 L55.9993647,128 L63.9992739,128 L71.9991832,128 L79.9990924,128 L87.9990016,128 L96.000363,128 L104.000272,128 L104.000272,120 L112.000182,120 L112.000182,112 L112.000182,104 L112.000182,95.9985478 L120.000091,95.9985478 L128,95.9985478 L128,87.9985478 L128,79.9985478 L128,71.9985478 L128,63.9985478 L128,55.9985478 L128,47.9985478 L128,39.9985478 L119.997186,39.9985478 Z M103.997368,103.998548 L103.997368,111.998548 L95.9974587,111.998548 L95.9974587,119.998548 L87.9960973,119.998548 L79.9961881,119.998548 L71.997731,119.998548 L63.9978218,119.998548 L55.9979125,119.998548 L47.9980033,119.998548 L39.998094,119.998548 L31.9981848,119.998548 L31.9981848,111.998548 L23.9982756,111.998548 L23.9982756,103.998548 L23.9982756,95.9970957 L31.9981848,95.9970957 L31.9981848,87.9970957 L39.998094,87.9970957 L47.9980033,87.9970957 L47.9980033,95.9970957 L47.9980033,103.998548 L55.9979125,103.998548 L55.9979125,95.9970957 L55.9979125,87.9970957 L63.9978218,87.9970957 L71.997731,87.9970957 L71.997731,95.9970957 L71.997731,103.998548 L79.9976403,103.998548 L79.9976403,95.9970957 L79.9976403,87.9970957 L87.9975495,87.9970957 L95.9989109,87.9970957 L95.9989109,95.9970957 L103.99882,95.9970957 L103.99882,103.998548 L103.997368,103.998548 Z M119.997186,79.9985478 L119.997186,87.9985478 L111.997277,87.9985478 L103.997368,87.9985478 L103.997368,79.9985478 L95.9974587,79.9985478 L87.9960973,79.9985478 L79.9961881,79.9985478 L79.9961881,71.9985478 L87.9960973,71.9985478 L87.9960973,63.9985478 L87.9960973,55.9985478 L87.9960973,47.9985478 L79.9961881,47.9985478 L79.9961881,39.9985478 L71.997731,39.9985478 L63.9978218,39.9985478 L55.9979125,39.9985478 L47.9980033,39.9985478 L47.9980033,47.9985478 L39.998094,47.9985478 L39.998094,55.9985478 L39.998094,63.9985478 L39.998094,71.9985478 L47.9980033,71.9985478 L47.9980033,79.9985478 L39.998094,79.9985478 L31.9981848,79.9985478 L23.9982756,79.9985478 L23.9982756,87.9985478 L15.9983663,87.9985478 L7.99845709,87.9985478 L7.99845709,79.9985478 L7.99845709,71.9985478 L15.9983663,71.9985478 L23.9982756,71.9985478 L23.9982756,63.9985478 L31.9981848,63.9985478 L31.9981848,55.9985478 L31.9981848,47.9985478 L31.9981848,39.9985478 L23.9982756,39.9985478 L23.9982756,31.9985478 L23.9982756,23.9985478 L31.9981848,23.9985478 L31.9981848,31.9985478 L39.998094,31.9985478 L47.9980033,31.9985478 L47.9980033,23.9985478 L55.9979125,23.9985478 L55.9979125,15.9985478 L55.9979125,7.99854783 L63.9978218,7.99854783 L71.997731,7.99854783 L71.997731,15.9985478 L71.997731,23.9985478 L79.9976403,23.9985478 L79.9976403,31.9985478 L87.9975495,31.9985478 L95.9989109,31.9985478 L95.9989109,23.9985478 L103.99882,23.9985478 L103.99882,31.9985478 L103.99882,39.9985478 L95.9989109,39.9985478 L95.9989109,47.9985478 L95.9989109,55.9985478 L95.9989109,63.9985478 L103.99882,63.9985478 L103.99882,71.9985478 L111.998729,71.9985478 L119.998639,71.9985478 L119.998639,79.9985478 L119.997186,79.9985478 Z" id="Shape"></path> </g> </g> </svg> 