<?xml version="1.0" encoding="UTF-8"?> <svg xmlns="http://www.w3.org/2000/svg" width="74" height="74" viewBox="0 0 74 74"> <title>ic_how_we_work_scale</title> <g fill="none" fill-rule="evenodd"> <path fill="#E3EA99" d="M7.05 44H26v15.31H7.05"></path> <path d="M65.835 47.221a3.261 3.261 0 0 0-2.663-.719L44 49.837v-6.844c1.478-.09 4.199-.517 6.076-2.393 2.63-2.628 2.424-6.944 2.413-7.126a.997.997 0 0 0-.943-.943c-.181-.016-4.499-.216-7.126 2.412-.15.15-.288.307-.42.466V32c1.478-.09 4.199-.517 6.076-2.393 2.63-2.628 2.424-6.944 2.413-7.126a.997.997 0 0 0-.943-.943c-.181-.014-4.499-.216-7.126 2.413-.15.15-.288.307-.42.466v-2.97l5.612-5.496A4.568 4.568 0 0 0 51 12.665a4.569 4.569 0 0 0-1.388-3.287h-.001c-1.82-1.783-4.773-1.796-6.611-.042-1.839-1.755-4.791-1.74-6.612.042A4.569 4.569 0 0 0 35 12.665c0 1.242.493 2.41 1.389 3.287L42 21.446v2.97a6.541 6.541 0 0 0-.42-.466c-2.627-2.63-6.945-2.427-7.126-2.413a.997.997 0 0 0-.943.943c-.011.182-.217 4.498 2.413 7.126C37.801 31.484 40.522 31.91 42 32v3.41a6.33 6.33 0 0 0-.42-.467c-2.628-2.628-6.943-2.427-7.126-2.412a.997.997 0 0 0-.943.943c-.011.182-.217 4.498 2.413 7.126 1.877 1.878 4.598 2.304 6.076 2.393v5.62l-4.293-4.294a.999.999 0 0 0-.707-.292H27a1 1 0 0 0-1-1H7v2h14v14H7v2h19a1 1 0 0 0 1-1h2.764l10.691 5.346a3.263 3.263 0 0 0 3.108-.099l21.816-12.727A3.277 3.277 0 0 0 67 49.724c0-.968-.425-1.88-1.165-2.503zM25 59.026h-2v-14h2v14zm39.371-8.208L42.556 63.545c-.37.217-.821.23-1.206.038l-10.902-5.45a.997.997 0 0 0-.448-.107h-3v-12h9.586l7.879 7.88a1.83 1.83 0 0 1-2.586 2.586l-5.172-5.173-1.414 1.414 5.172 5.172a3.802 3.802 0 0 0 2.707 1.121A3.833 3.833 0 0 0 47 55.198a3.804 3.804 0 0 0-1.121-2.707l-.81-.81 18.444-3.208a1.25 1.25 0 0 1 1.034.28 1.266 1.266 0 0 1-.176 2.065z" fill="#1E263A"></path> <path d="M28 11.026h-2c0 1.654-1.346 3-3 3v2c1.654 0 3 1.346 3 3h2c0-1.654 1.346-3 3-3v-2c-1.654 0-3-1.346-3-3z" fill="#00ADEE"></path> <path d="M22 20.026h-2c0 1.654-1.346 3-3 3v2c1.654 0 3 1.346 3 3h2c0-1.654 1.346-3 3-3v-2c-1.654 0-3-1.346-3-3zm38-5h-2c0 1.654-1.346 3-3 3v2c1.654 0 3 1.346 3 3h2c0-1.654 1.346-3 3-3v-2c-1.654 0-3-1.346-3-3z" fill="#86D2E9"></path> <path fill="#000" d="M25 39.026h2v2h-2zm-4 0h2v2h-2zm-4 0h2v2h-2z"></path> <path d="M45.834 36.356c1.348-1.348 3.424-1.71 4.635-1.803-.091 1.208-.451 3.276-1.807 4.632-1.348 1.348-3.424 1.71-4.634 1.803.091-1.208.451-3.276 1.806-4.632zm-8.496-8.164c-1.349-1.348-1.711-3.424-1.804-4.635 1.208.091 3.276.451 4.632 1.807 1.347 1.347 1.709 3.42 1.803 4.631-1.211-.094-3.284-.456-4.631-1.803zm0 10.993c-1.349-1.348-1.711-3.425-1.804-4.635 1.208.091 3.276.45 4.632 1.806 1.347 1.348 1.709 3.421 1.803 4.632-1.211-.094-3.284-.456-4.631-1.803zm8.496-13.821c1.348-1.349 3.424-1.71 4.635-1.804-.091 1.208-.451 3.276-1.807 4.632-1.347 1.347-3.42 1.71-4.631 1.803.094-1.21.456-3.284 1.803-4.63z" fill="#A5CD39"></path> <path d="M37.788 14.523a2.587 2.587 0 0 1-.001-3.716 2.748 2.748 0 0 1 1.929-.78c.697 0 1.396.26 1.928.78l.657.644a.998.998 0 0 0 1.398 0l.657-.644a2.773 2.773 0 0 1 3.855 0 2.582 2.582 0 0 1 .002 3.715L43 19.627l-5.212-5.104z" fill="#F65E64"></path> <path d="M0 0h74v74H0z"></path> </g> </svg> 